<svg width="506.8" height="485.3" version="1.1" viewBox="0 0 506.8 485.3" xmlns="http://www.w3.org/2000/svg">
 <path d="m218 0c-.1774.002-.3258.02059-.4512.04492h-.004c-.2642.05232-.53.09661-.7969.1328-.6754.09018-.7694.07216-1.475.7773l-133.6 133.6c-1.406 1.407-1.25 2.3-.6875 3.66.563 1.36 1.074 2.098 3.068 2.098h36.29c11.86.004 17.8 14.35 9.418 22.74l-88.37 88.38v.002c-1.408 1.407-1.25 2.298-.6875 3.658.5627 1.36 1.073 2.098 3.066 2.098h36.29c11.86.004 17.8 14.35 9.418 22.74l-88.38 88.38c-1.406 1.407-1.251 2.3-.6875 3.66.563 1.36 1.074 2.098 3.068 2.098h161.4c7.356.00066 13.32 5.964 13.32 13.32v94.61c0 2.023 1.359 3.377 3.375 3.377h66.79c1.385 0 2.41-.7345 2.977-1.777.1536-.2827.2637-.5821.3301-.9062.0447-.2184.0684-.4445.0684-.6934v-94.61l.9102-21.95c0-40.81 23.93-82.84 25.16-84.19 27.78-31.73 26.66-65.59 5.616-91.57-3.336-4.777-5.099-10.06-2.137-21.68s19.11-27.04 33.63-27.68h36.29c.0806 0 .1916-.002.3477-.0137l.008-.002c-.4105.03-.3627.0285.041-.006.1611-.0137.3174-.0376.4844-.0742-.0188.004.0147-.003.1016-.0254.2508-.0635.379-.1121.3867-.1152l.008-.004c.0628-.0256.1232-.0528.1895-.0859-.0184.009.0697-.0361.2773-.1738h.002c.1749-.116.2984-.2178.3867-.3008l.01-.008c.0389-.0365.0241-.0223.0586-.0547.0392-.0389.0783-.0763.1172-.1191.1576-.1737.3125-.3833.4453-.6113.0176-.0303.0362-.0692.0547-.1035.0271-.0595.0423-.093.1113-.2441l.002-.002c.0541-.119.0641-.1376.0918-.1992.0578-.1484.1086-.2953.1465-.4414.0257-.0992.0605-.2619.0879-.4805l-.0117.0996c.0688-.5845.0179-.1363.0117-.0723l.002-.0137c.003-.0215.006-.043.01-.0644.0462-.4171.0149-.7924-.0684-1.123l-.004-.0195c-.0334-.1289-.0746-.2522-.1289-.3809-.0537-.1272-.1207-.2605-.2109-.4062-.134-.2166-.3097-.4484-.5742-.7129l-133.6-133.6c-.0446-.04396-.0889-.08823-.1328-.1328-.052-.05349-.0995-.09769-.1426-.1367v-.002c-.0838-.07594-.1757-.1489-.2812-.2227-.0958-.06693-.1854-.1203-.2715-.166l-.01-.0059h-.002c-.0806-.0424-.127-.0642-.1406-.07031-.0607-.02727-.1079-.04482-.1445-.05859-.0404-.01522-.0879-.03278-.1465-.05078-.0627-.01928-.1104-.03183-.1484-.04101-.0956-.02303-.1938-.04028-.3027-.05274-.0929-.0106-.1866-.0134-.2793-.01367-.0236.000261-.0124-.000275-.0371 0zm136.3 138.1c-.009.0231-.0139.0452-.0234.0684.1071-.2605.0962-.2302.0234-.0684zm-.2051.4453c-.0521.1143-.0484.1097.0605-.1113-.0207.0413-.0406.0742-.0605.1113z" fill="#6b7166"/>
 <path d="m389.9 450.8c-64.9 0-116.9-51.56-116.9-107.2 0-36.69 25.42-65.57 26.51-66.78 24.45-28.53 23-63.34-.055-89.11-8.874-13.65-1.811-20.5 1.831-26.71 3.652-6.234 10.89-9.419 17.88-7.907 52.99 11.45 87.4 65.89 87.4 119.6v26.37c0 3.071 2.5 5.565 5.565 5.565s5.565-2.494 5.565-5.565v-48.51c0-6.924 4.272-13.13 10.74-15.6 6.489-2.451 13.79-.69 18.4 4.473l33.39 37.38c1.087 1.212 26.51 30.09 26.51 66.78.004 55.71-52.01 107.2-116.9 107.2z" fill="#b45018"/>
</svg>
