<svg xmlns="http://www.w3.org/2000/svg" xmlns:xlink="http://www.w3.org/1999/xlink" viewBox="0 0 786 241.33"><defs><style>.cls-1,.cls-4,.cls-5{fill:none;}.cls-2{fill-opacity:0;}.cls-3{clip-path:url(#clip-path);}.cls-4,.cls-5{stroke:#eee;stroke-width:1.5px;}.cls-5{stroke-linecap:square;}.cls-6,.cls-7{isolation:isolate;}.cls-7{font-size:12.6px;fill:#2e302d;font-family:RobotoCondensed-Regular, Roboto Condensed;}.cls-8{clip-path:url(#clip-path-2);}.cls-9{fill:#44542e;}.cls-10{fill:#323e21;}.cls-11{fill:#6e835b;}.cls-12{fill:#a8b495;}.cls-13{fill:#aea06d;}.cls-14{fill:#e0caac;}.cls-15{font-size:12px;}.cls-15,.cls-18,.cls-20{font-family:Roboto-Regular, Roboto;}.cls-16{letter-spacing:-0.02em;}.cls-17{letter-spacing:-0.05em;}.cls-18{font-size:14px;}.cls-19{letter-spacing:-0.01em;}.cls-20{font-size:13px;}</style><clipPath id="clip-path"><rect class="cls-1" x="157.06" y="73.85" width="620.71" height="138.81"/></clipPath><clipPath id="clip-path-2"><rect class="cls-1" x="158.56" y="72.55" height="141.41"/></clipPath></defs><title>graficoaviones</title><g id="graphic"><rect class="cls-1" x="158.56" y="68.83" width="626.94" height="142.33"/><rect class="cls-1" x="158.56" y="68.83" width="626.94" height="142.33"/><rect class="cls-1" x="158.56" y="75.35" width="617.71" height="135.81"/><rect class="cls-2" x="158.56" y="75.35" width="617.71" height="135.81"/><g class="cls-3"><line class="cls-4" x1="158.56" y1="199.85" x2="776.27" y2="199.85"/><line class="cls-4" x1="158.56" y1="177.21" x2="776.27" y2="177.21"/><line class="cls-4" x1="158.56" y1="154.58" x2="776.27" y2="154.58"/><line class="cls-4" x1="158.56" y1="131.94" x2="776.27" y2="131.94"/><line class="cls-4" x1="158.56" y1="109.31" x2="776.27" y2="109.31"/><line class="cls-4" x1="158.56" y1="86.67" x2="776.27" y2="86.67"/></g><line class="cls-5" x1="158.56" y1="211.16" x2="776.27" y2="211.16"/><line class="cls-4" x1="158.56" y1="211.16" x2="158.56" y2="218.16"/><g class="cls-6"><text class="cls-7" transform="translate(160.04 231.94) rotate(-45)">0</text></g><line class="cls-4" x1="728.76" y1="211.16" x2="728.76" y2="218.16"/><g class="cls-6"><text class="cls-7" transform="translate(725.84 236.34) rotate(-45)">60</text></g><line class="cls-4" x1="633.72" y1="211.16" x2="633.72" y2="218.16"/><g class="cls-6"><text class="cls-7" transform="translate(630.81 236.34) rotate(-45)">50</text></g><line class="cls-4" x1="538.69" y1="211.16" x2="538.69" y2="218.16"/><g class="cls-6"><text class="cls-7" transform="translate(535.77 236.34) rotate(-45)">40</text></g><line class="cls-4" x1="443.66" y1="211.16" x2="443.66" y2="218.16"/><g class="cls-6"><text class="cls-7" transform="translate(440.74 236.34) rotate(-45)">30</text></g><line class="cls-4" x1="348.63" y1="211.16" x2="348.63" y2="218.16"/><g class="cls-6"><text class="cls-7" transform="translate(345.71 236.34) rotate(-45)">20</text></g><line class="cls-4" x1="253.59" y1="211.16" x2="253.59" y2="218.16"/><g class="cls-6"><text class="cls-7" transform="translate(250.68 236.34) rotate(-45)">10</text></g><line class="cls-4" x1="206.08" y1="211.16" x2="206.08" y2="218.16"/><g class="cls-6"><text class="cls-7" transform="translate(207.56 231.94) rotate(-45)">5</text></g><line class="cls-4" x1="776.27" y1="211.16" x2="776.27" y2="218.16"/><g class="cls-6"><text class="cls-7" transform="translate(773.36 236.34) rotate(-45)">65</text></g><line class="cls-4" x1="681.24" y1="211.16" x2="681.24" y2="218.16"/><g class="cls-6"><text class="cls-7" transform="translate(678.32 236.34) rotate(-45)">55</text></g><line class="cls-4" x1="586.21" y1="211.16" x2="586.21" y2="218.16"/><g class="cls-6"><text class="cls-7" transform="translate(583.29 236.34) rotate(-45)">45</text></g><line class="cls-4" x1="491.17" y1="211.16" x2="491.17" y2="218.16"/><g class="cls-6"><text class="cls-7" transform="translate(488.26 236.34) rotate(-45)">35</text></g><line class="cls-4" x1="396.14" y1="211.16" x2="396.14" y2="218.16"/><g class="cls-6"><text class="cls-7" transform="translate(393.23 236.34) rotate(-45)">25</text></g><line class="cls-4" x1="301.11" y1="211.16" x2="301.11" y2="218.16"/><g class="cls-6"><text class="cls-7" transform="translate(298.19 236.34) rotate(-45)">15</text></g><line class="cls-5" x1="158.56" y1="211.16" x2="158.56" y2="75.35"/><line class="cls-4" x1="158.56" y1="199.85" x2="151.56" y2="199.85"/><line class="cls-4" x1="158.56" y1="177.21" x2="151.56" y2="177.21"/><line class="cls-4" x1="158.56" y1="154.58" x2="151.56" y2="154.58"/><line class="cls-4" x1="158.56" y1="131.94" x2="151.56" y2="131.94"/><line class="cls-4" x1="158.56" y1="109.31" x2="151.56" y2="109.31"/><line class="cls-4" x1="158.56" y1="86.67" x2="151.56" y2="86.67"/><g id="lines"><g class="cls-8"><path class="cls-1" d="M289.58,677c-7.55-92.66-15.09-185.32-22.64-256.59s-15.09-117.21-22.63-171.06-15.09-152-22.64-152H199c-7.55,0-15.09-4.75-22.64-9.5"/></g></g></g><g id="Layer_2" data-name="Layer 2"><rect class="cls-9" x="158.56" y="99.12" width="28.51" height="20.37"/><rect class="cls-10" x="158.56" y="76.49" width="19.01" height="20.37"/><rect class="cls-11" x="158.56" y="121.76" width="28.51" height="20.37"/><rect class="cls-12" x="158.56" y="144.39" width="180.56" height="20.37"/><rect class="cls-13" x="158.56" y="167.03" width="351.62" height="20.37"/><rect class="cls-14" x="158.56" y="189.66" width="608.21" height="20.37"/><text class="cls-15" transform="translate(3.2 90.88)">Donaciones internacionales</text><text class="cls-15" transform="translate(27.48 113.96)">Donaciones nacionales</text><text class="cls-15" transform="translate(4 136.01)">Cooope<tspan class="cls-16" x="41.43" y="0">r</tspan><tspan x="45.26" y="0">ación internacional</tspan></text><text class="cls-15" transform="translate(115.13 158.78)">Onemi</text><text class="cls-15" transform="translate(118.17 181.25)">Conaf</text><text class="cls-15" transform="translate(123.43 203.89)"><tspan class="cls-17">T</tspan><tspan x="6.58" y="0">otal</tspan></text><path d="M334.32,30.85h-6.08l-5.59-9.78a.84.84,0,0,0-.74-.43h-3.48a.85.85,0,0,0-.82,1.09l2.61,9.12h-5.47l-2.3-3.06a.86.86,0,0,0-.68-.34h-2.13a.85.85,0,0,0-.82,1.06l1.67,5.75L308.82,40a.84.84,0,0,0,.82,1.05h2.13a.83.83,0,0,0,.68-.34l2.3-3.06h5.47l-2.61,9.13a.85.85,0,0,0,.82,1.08h3.48a.84.84,0,0,0,.74-.43l5.59-9.78h6.08c1.88,0,5.11-1.52,5.11-3.4S336.2,30.85,334.32,30.85Z"/><text class="cls-18" transform="translate(346.32 40.83)">Cantidad de <tspan class="cls-19" x="78.07" y="0">a</tspan><tspan x="85.59" y="0">viones enviados</tspan></text><text class="cls-20" transform="translate(185.29 90)">2</text><text class="cls-20" transform="translate(197.14 113.94)">3</text><text class="cls-20" transform="translate(197.14 136.74)">3</text><text class="cls-20" transform="translate(346.71 159.21)">19</text><text class="cls-20" transform="translate(515.64 181.85)">37</text><text class="cls-20" transform="translate(771.05 204.48)">64</text></g></svg>