<svg xmlns="http://www.w3.org/2000/svg" xmlns:xlink="http://www.w3.org/1999/xlink" viewBox="0 0 633.04 241.33"><defs><style>.cls-1,.cls-4,.cls-5{fill:none;}.cls-2{fill-opacity:0;}.cls-3{clip-path:url(#clip-path);}.cls-4,.cls-5{stroke:#eee;stroke-width:1.5px;}.cls-4{stroke-linecap:square;}.cls-6,.cls-7{isolation:isolate;}.cls-7{font-size:12.6px;fill:#2e302d;font-family:RobotoCondensed-Regular, Roboto Condensed;}.cls-8{clip-path:url(#clip-path-2);}.cls-9{fill:#44542e;}.cls-10{fill:#323e21;}.cls-11{fill:#6e835b;}.cls-12{fill:#a8b495;}.cls-13{fill:#aea06d;}.cls-14{fill:#e0caac;}.cls-15{font-size:15px;}.cls-15,.cls-19,.cls-20{font-family:Roboto-Regular, Roboto;}.cls-16{letter-spacing:-0.02em;}.cls-17{letter-spacing:-0.05em;}.cls-18{letter-spacing:-0.01em;}.cls-19,.cls-20{font-size:16px;}.cls-19{fill:#fff;}</style><clipPath id="clip-path"><rect class="cls-1" x="4.6" y="66.03" width="620.71" height="138.81"/></clipPath><clipPath id="clip-path-2"><rect class="cls-1" x="6.1" y="64.73" height="141.41"/></clipPath></defs><title>cantidad-aviones-02</title><g id="graphic"><rect class="cls-1" x="6.1" y="61" width="626.94" height="142.33"/><rect class="cls-1" x="6.1" y="61" width="626.94" height="142.33"/><rect class="cls-1" x="6.1" y="67.53" width="617.71" height="135.81"/><rect class="cls-2" x="6.1" y="67.53" width="617.71" height="135.81"/><line class="cls-4" x1="6.1" y1="203.34" x2="623.81" y2="203.34"/><line class="cls-5" x1="6.1" y1="203.34" x2="6.1" y2="210.34"/><g class="cls-6"><text class="cls-7" transform="translate(7.58 224.11) rotate(-45)">0</text></g><line class="cls-5" x1="576.3" y1="203.34" x2="576.3" y2="210.34"/><g class="cls-6"><text class="cls-7" transform="translate(573.38 228.51) rotate(-45)">60</text></g><line class="cls-5" x1="481.26" y1="203.34" x2="481.26" y2="210.34"/><g class="cls-6"><text class="cls-7" transform="translate(478.35 228.51) rotate(-45)">50</text></g><line class="cls-5" x1="386.23" y1="203.34" x2="386.23" y2="210.34"/><g class="cls-6"><text class="cls-7" transform="translate(383.32 228.51) rotate(-45)">40</text></g><line class="cls-5" x1="291.2" y1="203.34" x2="291.2" y2="210.34"/><g class="cls-6"><text class="cls-7" transform="translate(288.28 228.51) rotate(-45)">30</text></g><line class="cls-5" x1="196.17" y1="203.34" x2="196.17" y2="210.34"/><g class="cls-6"><text class="cls-7" transform="translate(193.25 228.51) rotate(-45)">20</text></g><line class="cls-5" x1="101.13" y1="203.34" x2="101.13" y2="210.34"/><g class="cls-6"><text class="cls-7" transform="translate(98.22 228.51) rotate(-45)">10</text></g><line class="cls-5" x1="53.62" y1="203.34" x2="53.62" y2="210.34"/><g class="cls-6"><text class="cls-7" transform="translate(55.1 224.11) rotate(-45)">5</text></g><line class="cls-5" x1="623.81" y1="203.34" x2="623.81" y2="210.34"/><g class="cls-6"><text class="cls-7" transform="translate(620.9 228.51) rotate(-45)">65</text></g><line class="cls-5" x1="528.78" y1="203.34" x2="528.78" y2="210.34"/><g class="cls-6"><text class="cls-7" transform="translate(525.86 228.51) rotate(-45)">55</text></g><line class="cls-5" x1="433.75" y1="203.34" x2="433.75" y2="210.34"/><g class="cls-6"><text class="cls-7" transform="translate(430.83 228.51) rotate(-45)">45</text></g><line class="cls-5" x1="338.72" y1="203.34" x2="338.72" y2="210.34"/><g class="cls-6"><text class="cls-7" transform="translate(335.8 228.51) rotate(-45)">35</text></g><line class="cls-5" x1="243.68" y1="203.34" x2="243.68" y2="210.34"/><g class="cls-6"><text class="cls-7" transform="translate(240.77 228.51) rotate(-45)">25</text></g><line class="cls-5" x1="148.65" y1="203.34" x2="148.65" y2="210.34"/><g class="cls-6"><text class="cls-7" transform="translate(145.73 228.51) rotate(-45)">15</text></g><line class="cls-4" x1="6.1" y1="203.34" x2="6.1" y2="67.53"/><g id="lines"><g class="cls-8"><path class="cls-1" d="M137.12,669.21C129.57,576.55,122,483.9,114.48,412.62S99.39,295.42,91.85,241.56s-15.09-152-22.64-152H46.58c-7.55,0-15.09-4.75-22.64-9.5"/></g></g></g><g id="Layer_2" data-name="Layer 2"><rect class="cls-9" x="6.1" y="79.29" width="28.51" height="20.37"/><rect class="cls-10" x="6.1" y="53.66" width="19.01" height="20.37"/><rect class="cls-11" x="6.1" y="104.93" width="28.51" height="20.37"/><rect class="cls-12" x="6.1" y="130.56" width="180.56" height="20.37"/><rect class="cls-13" x="6.1" y="156.2" width="351.62" height="20.37"/><rect class="cls-14" x="6.1" y="181.83" width="608.21" height="20.37"/><text class="cls-15" transform="translate(34.61 70.3)">Donaciones internacionales</text><text class="cls-15" transform="translate(42.6 95.93)">Donaciones nacionales</text><text class="cls-15" transform="translate(43.6 121.43)">Cooope<tspan class="cls-16" x="51.79" y="0">r</tspan><tspan x="56.57" y="0">ación internacional</tspan></text><text class="cls-15" transform="translate(195.17 147.12)">Onemi</text><text class="cls-15" transform="translate(364.84 173.67)">Conaf</text><text class="cls-15" transform="translate(576.19 197.74)"><tspan class="cls-17">T</tspan><tspan x="8.23" y="0">otal</tspan></text><path d="M215.86,20h-6.08l-5.59-9.79a.86.86,0,0,0-.74-.43H200a.86.86,0,0,0-.82,1.09L201.76,20h-5.47L194,17a.86.86,0,0,0-.68-.34h-2.13a.85.85,0,0,0-.82,1.06L192,23.43l-1.67,5.75a.85.85,0,0,0,.82,1.06h2.13a.86.86,0,0,0,.68-.34l2.3-3.07h5.47L199.15,36a.86.86,0,0,0,.82,1.09h3.48a.86.86,0,0,0,.74-.43l5.59-9.79h6.08c1.88,0,5.11-1.52,5.11-3.4S217.74,20,215.86,20Z"/><text class="cls-15" transform="translate(227.86 30.75)">Cantidad de <tspan class="cls-18" x="83.65" y="0">a</tspan><tspan x="91.7" y="0">viones enviados</tspan></text><text class="cls-19" transform="translate(12.6 69.42)">2</text><text class="cls-19" transform="translate(23.11 96.37)">3</text><text class="cls-19" transform="translate(23.11 121)">3</text><text class="cls-20" transform="translate(165.91 147.64)">19</text><text class="cls-20" transform="translate(552.07 198.83)">64</text><text class="cls-20" transform="translate(334.99 173.04)">37</text></g></svg>