<svg id="Capa_1" data-name="Capa 1" xmlns="http://www.w3.org/2000/svg" viewBox="0 0 527.32 555.97"><defs><style>.cls-1{opacity:0.6;}.cls-2{fill:#6d834a;}.cls-3{fill:#b29450;}.cls-4{fill:#ecd2b7;}.cls-5{font-size:16.33px;font-family:Roboto-Regular, Roboto;}.cls-6{letter-spacing:-0.02em;}.cls-7{letter-spacing:0em;}.cls-8{letter-spacing:-0.02em;}.cls-9{letter-spacing:0em;}.cls-10{letter-spacing:-0.01em;}.cls-11{letter-spacing:-0.01em;}.cls-12{font-size:12.7px;font-family:Roboto-Black, Roboto;font-weight:800;}.cls-13{font-size:18px;font-family:Roboto-Medium, Roboto;font-weight:500;}.cls-14{letter-spacing:-0.01em;}.cls-15{letter-spacing:-0.01em;}</style></defs><g id="nodes"><g id="Asia" class="cls-1"><path id="p_725.2760638397282" data-name="p 725.2760638397282" class="cls-2" d="M312.64,562.64a157.38,157.38,0,1,1,0-314.76h0a157.38,157.38,0,0,1,0,314.76Z" transform="translate(-155.25 -6.68)"/></g><g id="Africa" class="cls-1"><path id="p_899.5135595756113" data-name="p 899.5135595756113" class="cls-3" d="M525.19,562.64a157.38,157.38,0,0,1,0-314.76h0a157.38,157.38,0,0,1,0,314.76Z" transform="translate(-155.25 -6.68)"/></g><g id="South_America" data-name="South America" class="cls-1"><path id="p_487.9210370678403" data-name="p 487.9210370678403" class="cls-4" d="M419.05,387.51A157.39,157.39,0,1,1,576.43,230.12,157.39,157.39,0,0,1,419.05,387.51Z" transform="translate(-155.25 -6.68)"/></g></g><text class="cls-5" transform="translate(203.02 131.33)">30 o más g<tspan class="cls-6" x="80.54" y="0">r</tspan><tspan class="cls-7" x="85.74" y="0">ados </tspan><tspan x="5.91" y="19.59">Centíg</tspan><tspan class="cls-8" x="52.72" y="19.59">r</tspan><tspan x="57.93" y="19.59">ados de</tspan><tspan x="14.46" y="39.18" xml:space="preserve"> tempe</tspan><tspan class="cls-8" x="64.6" y="39.18">r</tspan><tspan class="cls-9" x="69.8" y="39.18">atu</tspan><tspan class="cls-6" x="93.01" y="39.18">r</tspan><tspan x="98.22" y="39.18">a</tspan></text><text class="cls-5" transform="translate(62.06 440.22)">Menos de un 30% <tspan x="5.96" y="19.59">de humedad del </tspan><tspan x="29.98" y="39.18">ambiente</tspan></text><text class="cls-5" transform="translate(343.66 446.25)">Más de 30 nudos <tspan x="3.76" y="19.59">de </tspan><tspan class="cls-10" x="25.66" y="19.59">v</tspan><tspan x="33.46" y="19.59">elocidad del </tspan><tspan x="40.4" y="39.18">vien</tspan><tspan class="cls-11" x="69.93" y="39.18">t</tspan><tspan x="75.1" y="39.18">o</tspan></text><path d="M412.51,205.65a6.44,6.44,0,1,1,12.88,0V225.1a9,9,0,1,1-12.88,0Zm6.44-3.86a3.86,3.86,0,0,0-3.87,3.86v20.58l-.43.38a6.44,6.44,0,1,0,9.1.51,6.14,6.14,0,0,0-.51-.51l-.43-.39V205.65A3.86,3.86,0,0,0,419,201.79Zm12.88,2.57a1.29,1.29,0,0,1,1.29,1.29v2.58a1.29,1.29,0,0,1-2.58,0v-2.58A1.29,1.29,0,0,1,431.83,204.36Zm10.93,4.53a1.29,1.29,0,0,1,0,1.82l-1.82,1.82a1.29,1.29,0,1,1-1.83-1.82l1.83-1.82A1.29,1.29,0,0,1,442.76,208.89Zm-12.22,4.49a1.29,1.29,0,0,1,1.29-1.29,7.73,7.73,0,1,1,0,15.46,1.29,1.29,0,1,1,0-2.58,5.15,5.15,0,1,0,0-10.3A1.29,1.29,0,0,1,430.54,213.38Zm11.59,6.44a1.29,1.29,0,0,1,1.29-1.29H446a1.29,1.29,0,1,1,0,2.58h-2.58A1.29,1.29,0,0,1,442.13,219.82Zm-3,7.28a1.3,1.3,0,0,1,1.83,0h0l1.82,1.83a1.29,1.29,0,0,1-1.82,1.82l-1.83-1.82a1.29,1.29,0,0,1,0-1.82Zm-7.28,3a1.29,1.29,0,0,1,1.29,1.29V234a1.29,1.29,0,0,1-2.58,0v-2.58A1.29,1.29,0,0,1,431.83,230.12Z" transform="translate(-155.25 -6.68)"/><path d="M422.92,232.14a4,4,0,1,1-5.29-3.75V205.68a1.32,1.32,0,0,1,2.64,0v22.71A4,4,0,0,1,422.92,232.14Z" transform="translate(-155.25 -6.68)"/><path d="M272.92,409.53a1.33,1.33,0,0,1,.85,1.7h0l-1.34,4a1.35,1.35,0,0,1-2.56-.86l1.35-4A1.33,1.33,0,0,1,272.92,409.53Zm16.17,0a1.34,1.34,0,0,1,.86,1.7h0l-1.34,4a1.35,1.35,0,0,1-2.56-.86l1.35-4A1.33,1.33,0,0,1,289.09,409.53Zm-9.43,4a1.33,1.33,0,0,1,.85,1.7h0l-1.35,4a1.35,1.35,0,0,1-2.55-.85l1.35-4.05A1.34,1.34,0,0,1,279.66,413.57Zm16.17,0a1.33,1.33,0,0,1,.85,1.7h0l-1.35,4a1.34,1.34,0,0,1-2.58-.76l0-.09,1.35-4.05A1.34,1.34,0,0,1,295.83,413.57Zm2-22.9a13.48,13.48,0,0,0-25.6-2.71,9.43,9.43,0,0,0-2.16,18.74,9.59,9.59,0,0,0,1.07.06h25.6a8.08,8.08,0,0,0,1.09-16.09Z" transform="translate(-155.25 -6.68)"/><path d="M572.28,385.44a6.09,6.09,0,0,0-6.09,6.09,1.22,1.22,0,0,1-2.43,0,8.52,8.52,0,1,1,8.52,8.52H543.06a1.22,1.22,0,0,1,0-2.44h29.22a6.09,6.09,0,0,0,0-12.17Zm-17,2.44a2.43,2.43,0,0,0-2.44,2.43,1.22,1.22,0,1,1-2.43,0,4.87,4.87,0,1,1,4.87,4.87H543.06a1.22,1.22,0,0,1,0-2.44h12.18a2.43,2.43,0,0,0,0-4.86ZM541.85,403.7a1.22,1.22,0,0,1,1.21-1.22h24.45a7.31,7.31,0,1,1-7.3,7.31,1.22,1.22,0,1,1,2.43,0,4.87,4.87,0,1,0,4.87-4.87H543.06A1.22,1.22,0,0,1,541.85,403.7Z" transform="translate(-155.25 -6.68)"/><text class="cls-12" transform="translate(260.31 432.37)">30</text><text class="cls-12" transform="translate(186.33 308.73)">30</text><text class="cls-12" transform="translate(326.52 308.91)">30</text><path d="M411.72,362c-1.69-6-4.28-8-1.68-13.28,1-2.1,3-6.37,3-6.37a22.12,22.12,0,0,1,1.86,2.95c1.09,2.2.81,6.37.81,6.37s1.85-3.21,1.56-5.73c-.35-3,1.16-12.22,1.16-12.22a24.89,24.89,0,0,0,.61,5.15c.51,1.65,6.8,7.65,7.61,12.62s-3.24,11.76-3.24,11.76a25.14,25.14,0,0,0,5-2,16.13,16.13,0,0,0,6.48-9.61c.79-3.77.35-7.53-.58-12.39s-6.83-9.15-5.5-7.47c1.46,1.84-1.23,7.89-1.23,7.89s-2.34-.84-2.65-2.21c-1-4.43,1.5-5.56-2.66-9.79-5.12-5.19-4.23-6.6-4.23-6.6s-2.25,7.24-4.45,10.89a52.14,52.14,0,0,1-7.07,8.45l-.58-6.33-3,5.4a26,26,0,0,0-2.28,13.09,18.43,18.43,0,0,0,3.12,6.71,12.59,12.59,0,0,0,6,3.82l2.31.47Z" transform="translate(-155.25 -6.68)"/><text class="cls-13" transform="translate(33.71 32.79)">Combinación de situaciones mete<tspan class="cls-14" x="273.49" y="0">r</tspan><tspan x="279.65" y="0">eológicas ad</tspan><tspan class="cls-15" x="382.03" y="0">v</tspan><tspan x="390.82" y="0">ersas</tspan></text></svg>