<svg id="svg8" xmlns="http://www.w3.org/2000/svg" viewBox="0 0 1365.24 285.1"><title>arboles-negros</title><g id="layer1"><path id="path860" d="M1209.06,277.74h-18.27l-3.45,2.16-3.46,2.15-7.2-2.15a51.66,51.66,0,0,0-11.41-2.16h-4.19l-3.5,3.16-3.5,3.16-2.31-3.16-2.32-3.17-5.71,1.14L1138,280v-7.1l4.5-4.23,4.5-4.23,2-6,2-6,1.29-23.09,1.29-23.09L1149,190.13l-4.5-16.21h-5l-1,3.64-1,3.65-5.7,1.47-5.71,1.48-1.46,11.73-1.45,11.72,1.09,20.95c.61,11.52,2,24.49,3.08,28.83l2,7.88,3.39,2.12c1.86,1.16,3.39,3.15,3.39,4.41v2.29l-2.28-.45-2.27-.46.6,4.31.61,4.3L1115,280.58,1097,279.36l-8.2,1.7a85.65,85.65,0,0,0-11,2.87l-2.78,1.17L1073,283l-2.13-2.13-12.68-.28-12.67-.28-2.9-2.4-2.89-2.4-8.29,2.09-8.29,2.08-7.43-2-7.44-2-7.5.59-7.51.59L990.84,280c-3,3.95-6.46,4.08-9.56.34l-2.36-2.85-4,1-4,1-5.19-2.71-5.2-2.71h-6.55a44.68,44.68,0,0,0-12.39,2l-5.83,2L934.45,277l-1.21-1.21,2.26-3.1A90.84,90.84,0,0,0,941.37,262l3.62-7.59,2-24.29,2-24.29-1.16-18.21c-.64-10-1.61-20.77-2.16-23.89l-1-5.68-11.08-1.16-11.08-1.16-3,2.72-3,2.71-2.1-2.1-2.1-2.11-1.07,2.77-1.06,2.77L913.85,184l3.69,21.57L915,208.44l-2.57,2.83,1.66,19.12C915,240.9,916.24,252,916.88,255l1.14,5.46,3.64,4,3.64,4L924,270.44l-1.28,2.08-5.74-.44a32.85,32.85,0,0,0-9.83.78c-2.26.68-5.74,1.7-7.74,2.27l-3.65,1v-5.44l-3.18-.72-3.19-.73-5.2,2.56L879,274.38l-4.83-1.91-4.82-1.92-36.43.17-36.42.16-1.24,1.95L794,274.78l-13.31-2.06-13.31-2.06-2.91,2.63c-3.71,3.36-5.34,3.33-5.34-.11v-2.73h-1.85c-1,0-3.45,1-5.42,2.23l-3.57,2.23-2-2-2-2,6.5-7.07,6.49-7.07.88-5.46c.49-3,1.2-16.12,1.58-29.15l.69-23.67L755.78,183l-4.7-15.48L751,150.69,751,133.84H749.6c-.75,0-1.37,1.44-1.39,3.19,0,4.61-7,26.19-9.39,29.07l-2,2.44L738,169.7l1.17,1.16,4.45-2,4.45-2-.42,6.74-.42,6.74-5.86.57-5.86.57L732.61,187l-2.85,5.52-1.25,14.86-1.25,14.85,1.42,12.75c1.63,14.65,5.49,27.41,9.71,32.07l2.92,3.22L740.2,272l-1.11,1.79-13.73-1-13.73-1-10,2.41c-5.51,1.32-10.46,3.12-11,4l-1,1.61-4.53-3-4.53-3-2.66,1-2.65,1-3.57-2.23-3.58-2.23-3.39,2.12-3.39,2.11-2.9-2.9-2.9-2.89-10,2.24-10,2.24-3.61-1.94-3.61-1.93H609.81v-1.7c0-.93,1.69-2.23,3.76-2.89s6.58-3.67,10-6.69l6.25-5.49v-57.2l-4.61-6.25L620.62,184l2-.68a4.6,4.6,0,0,1,4.07,1.35,6.74,6.74,0,0,0,3.48,2h1.46v-9.3l-5.47-1.9c-3-1.05-5.46-2.65-5.46-3.55v-1.65h9.1v-2.5a59.28,59.28,0,0,0-1.13-8.2l-1.14-5.69-10.25-.19-10.24-.19,6.93-2.15,6.93-2.15-7.77-4.36-7.76-4.37,2.11-.7c1.17-.39,5.86.95,10.44,3l8.33,3.68-1.11-12.21c-.6-6.72-1.47-13.38-1.92-14.8l-.82-2.58L620.31,119c-1.17,1.17-2.75,2.12-3.52,2.12h-1.4l1.05-2.73,1-2.73h-2.56c-1.41,0-3.08,2.35-4.76,2.94l-1.63.57.38-1.94,1.14-3-9.14-2.34-9.13-2.35,1-1.57,1-1.57,3.77,1.19,3.76,1.2-1.26-3.3-1.27-3.3c2.58-.76,2.65,1.87,3.62,3.28l3.61,3.27,5.34-2.66,2.63.37c1,1,.88.38,1.15,1.35l-.22,2.39,2,.27c1.12.15,3,.35,4.11.45l2.08.19.32-31.39c.17-17.26.77-31.7,1.16-32.23,3.82-5.16,2,5.62,4.19,17.58l3.34,18.43,1.46-2.6L635,78.28l1.23-30,1.24-30,2-1.26a3.71,3.71,0,0,1,3.31-.46c1.52.95,3.12,26.74,4.28,69.1.47,17,.88,31.05.92,31.16a27.15,27.15,0,0,0,4.77-.69l4.7-.9,1.56-3.86,1.56-3.86.11,3.33.12,3.33,5.92-.33a76.75,76.75,0,0,1,7.74-.11l1.82.22-2.73,1.79-2.73,1.79,2.1,1.37,2.1,1.36-8.48.14-8.47.13-5,2.1-5,2.1V142l13.83-.92,13.83-.92.76,1.24.77,1.24-9.59,2.75c-5.27,1.52-11.84,3.31-14.59,4l-5,1.22v4.81a54.79,54.79,0,0,0,1.9,11.62l1.89,6.81,3.57,1.91,3.56,1.91v3.21a8.53,8.53,0,0,0,2,5.26l2.05,2,2.32-.89,2.33-.89,2.15,6.5c1.18,3.57,2.49,6.5,2.92,6.5,1.09,0,14.28-14.65,15.07-16.73.35-.95-.8-2.77-2.56-4.06l-3.2-2.34,1.3-2.1,1.29-2.1H690c2.89,0,5.63-.62,6.1-1.37s-1.93-5.47-5.33-10.48c-8-11.71-7.9-14.16.14-6.36l6.38,6.18v-2.15c0-1.19-2.55-9.75-5.66-19L685.92,122l1.22-26.42,1.23-26.41,1.78-1.8,1.78-1.81,1.69,2.72c2,3.27,3.9,12.61,9.37,47.08l4.15,26.15,2.28,3,2.27,3,.06-4.1.06-4.1h7l.67,2,.66,2,6.54-3.86,6.54-3.86,3.22-8.42,3.21-8.41-3-9.46c-1.64-5.2-3-10.62-3-12V94.68l3.38,5.13,3.38,5.13,1.16-5.81a91.9,91.9,0,0,0,1.16-14.5V76l2.51-1,2.51-1,2.05,2a8.1,8.1,0,0,1,2.07,4.86l0,2.83,2.31-4.56,2.3-4.55h7.18L763,95.14l-.68,20.49h1.53c.84,0,5.86-4.27,11.15-9.5l9.62-9.5V99c0,1.31-4.15,8.38-9.22,15.72l-9.23,13.34-.13,5.17c-.18,6.73,1.47,14.56,6.94,33l4.47,15H779c.84,0,5.33-4.43,10-9.85l8.41-9.85v-3.7c0-2-.8-4.2-1.78-4.81l-1.78-1.1,2.15-3.46,2.16-3.45-3.22-3.57-3.23-3.56,1.94-1.2,1.94-1.2V96.66l-6.83-5.92a89.88,89.88,0,0,0-14.52-9.91l-7.69-4,1-1.57,1-1.57,4.9,1.14c2.69.62,8.32,3.08,12.51,5.47s8,4.34,8.56,4.34.63-2.63.22-5.84-.89-12.69-1.07-21.06l-.34-15.22,2-2,2-2,.89,2.58c.49,1.42,1.73,7.09,2.76,12.6s3.92,19.86,6.44,31.88,4.6,25.54,4.64,30.05l.08,8.2,1.54-2.74c.85-1.5,2.11-10.92,2.79-20.94a288.83,288.83,0,0,1,3.41-29L822,60.36l2-.67,2-.67,1.12,4.17c.61,2.29,1.13,10.48,1.14,18.18l0,14,1.82,1.13L832,97.63l.07-2.38c0-1.31,1.28.4,2.76,3.81s3,5.86,3.31,5.46-1-12-3.08-25.76l-3.7-25,1.26-1.26,1.26-1.26,1.9,1.9c1,1,5.5,12.36,9.9,25.14,8.55,24.82,10,27.83,10,20.74,0-2.47.84-5.32,1.86-6.35l1.86-1.86L853.78,83c-3.1-4.28-5.24-8.17-4.77-8.65s3.53,3,6.78,7.72l5.92,8.59L865,84.48c4.35-8.17,4.41-5.23.07,3.45a58.75,58.75,0,0,0-4.47,12.48l-1.09,5.72,8.93-2.85,8.94-2.86,4.18,2.15,4.19,2.14-5.92-1.06-5.92-1.06v1.6c0,.88,1,2.59,2.19,3.79l2.19,2.19h-2.1c-1.15,0-2.79-1.25-3.64-2.77L871,104.64l-5.7,2-5.69,2-1.68,4.88-1.68,4.87,7.26,30.06,7.26,30.05.57,21.86c.31,12,1,28.32,1.53,36.23l1,14.38,3.1,4.75a57.1,57.1,0,0,0,5.7,7.35l2.6,2.61,2.08-3.52c3.55-6,4.37-11.93,4.59-33.14l.22-20.52-2.28-3.85-2.28-3.86,2.38-2.43,2.18.78V103.23l2.6-24.31c1.43-13.37,3.15-31.07,3.83-39.33l1.23-15h3.36l1.1,5.53,1.11,5.53,3.09,1.65,3.08,1.65-1.67,13.31-1.67,13.31L909.08,88l.89,22.5,2,2,2,2,0-2.64.06-2.64,1.85,3.18,1.86,3.19h10.93l5.54,2.87,5.54,2.86,1.2-1.19,1.2-1.19.91-53L944,13l2.28-.76a3.69,3.69,0,0,0,2.27-3.33c0-4.12,3.15-3,4.25,1.51.55,2.26,2,11.37,3.24,20.25l2.23,16.15,3.74-7,3.74-7,.72,4.55.72,4.55-3.3,20.53-3.31,20.53,2.22,20c1.22,11,2.71,22.39,3.3,25.38l1.09,5.43,2.65-2.65c3-3,5.82-3.31,9.59-.92l2.65,1.67.3,5.13c.17,2.82.42,7.09.54,9.48l.24,4.34,4.58-4.58,4.58-4.58-1.13-2.95-1.13-3h3.6c2,0,7.09,1.22,11.34,2.72l7.73,2.73-1.31-12.29c-.71-6.76-1.66-12.67-2.11-13.13s-2.41.15-4.35,1.37c-4.71,2.94-5.52,2.78-4.14-.8l1.15-3-4.8,1.21-4.81,1.21.91-2.37.91-2.36L986,108.74l-8.25-2.2v-1.89c0-1,1.44-2.41,3.19-3.06a10.51,10.51,0,0,0,4.35-2.91L986.43,97l2.06,1.27c1.13.7,1.67,1.89,1.2,2.65l-.86,1.39,3.11-.35a41.37,41.37,0,0,0,11.87-4l1.49-.81-.58,3.18-.57,3.18,2,.71,2,.71,1-30.75,1-30.76,2.35-4.37,2.35-4.37,1.43,5.31A83.47,83.47,0,0,1,1018.05,54c.22,4.82,1,9.65,1.63,10.74l1.22,2,1.17-12.41c.65-6.83,1.18-17.18,1.19-23a94.41,94.41,0,0,1,2.07-18.76l2.06-8.18,2.95.56,3,.56,1.16,15.46c.63,8.51,1.79,32.48,2.56,53.26l1.4,37.8,2,0c2.85,0,5.37-2,9.14-7.26l3.29-4.55-1,4.26-1,4.27,4.42-1.08,9.44-2.29,5-1.21-2.31,2.8-2.31,2.8,1.15,3,1.14,3-2.93-1.12-2.94-1.13v1.86a3.56,3.56,0,0,0,2.28,2.79l2.27.92-3.08.14a5.15,5.15,0,0,1-4.25-1.75l-1.17-1.9-3.94,1.2c-2.17.67-6.51,2.26-9.65,3.54l-5.7,2.33.88,4.63.89,4.64,5.39,1.18,5.4,1.19,3.21-2.91c1.76-1.59,3.73-2.9,4.37-2.9h1.17l-1.12,2.9-1.11,2.89,6-.62,6-.62.76,2.28.76,2.28h-5.77v3.57l-4.55,1.14c-4.89,1.23-6,3.57-2.28,4.93l2.28.84-5,1.34-5,1.33-2.47-2-2.48-2.06-2.78,1.07-2.79,1.07-.72,7.61-.73,7.61,2.4,4.81,2.4,4.81,3.85,1,3.85,1-1,2.5-1,2.5,3.41,4.44,3.42,4.44,0-2.43,0-2.43,2.15.72c1.18.39,3,3.36,4.13,6.59l2,5.88,6.17-6.37,6.17-6.37-2.38-2.87-2.38-2.86,2.4-4.5,2.41-4.49h6.67v-2.83c0-1.55-2.05-5.84-4.56-9.53s-4.55-8.15-4.55-9.92v-3.22h2.06c1.14,0,3.6,1.77,5.48,3.94s3.7,3.6,4.06,3.19-1.43-6.9-4-14.41l-4.62-13.66-.13-29.15L1077,65.54l2.39-4.21,2.39-4.21,3.07.59,3.06.58,1.54,11.82c3.45,26.59,10.39,66.38,11.83,67.82l1.54,1.53,2.33-2.81a7.92,7.92,0,0,1,5-2.81H1113l-1,5-1,5,3-3.73a18.79,18.79,0,0,1,6.2-4.94c1.75-.67,4.86-3.9,6.92-7.19l3.73-6-1.3-7.29a139.17,139.17,0,0,1-1.67-14.57,65.9,65.9,0,0,0-1.06-9.79l-.69-2.51,2-.75,2-.76,1.38,4.17,1.37,4.17.7-4.55c.39-2.5,1.15-8,1.7-12.27l1-7.72,2.75-2.76c1.51-1.51,3.87-2.75,5.23-2.75h2.47l.79,4.1.79,4.1.25-4.16.25-4.15,2.75-1.06,2.76-1.06,2.8,2.33,2.81,2.32-1.22,9.73-1.22,9.73L1159,98.79l1.33,12.29,9.81-10.77s8.58.59,3.07,9.73-11.47,17.52-11.47,18.86c0,2.35,10.08,43.31,11.93,48.48l.92,2.55,4.42-4.16a88.35,88.35,0,0,0,9.52-11.51l9.43-13.4,6.43,2.41-13.51,36.59-3,2.5a24.84,24.84,0,0,0-5.27,7.87l-2.25,5.37.9,2.36.91,2.36-1,2,1.49,21,1.18,19.77,1.91,5,13.88,18.77m-195-11.83,7.39-5.35,1.42-16.05c.79-8.83,1.44-22.2,1.44-29.71l0-13.66-4-6.38c-2.2-3.5-4-7.4-4-8.65V183h5.46V179.5l2.74,1,2.73,1.05V179.8c0-1-2.46-2.82-5.47-4.06-6.39-2.65-6.36-2.55-2.4-7.17l3-3.57,1.5.92,1.5.93v-3a16.8,16.8,0,0,0-1.89-6.49l-1.88-3.52h-9.05c-9.69,0-10.89-1-5.85-4.68l3.19-2.36-2.36-2.38-2.35-2.39-1.73,2.72a80.1,80.1,0,0,0-4.68,10.91c-4.11,11.42-4.15,11.52-6,14.57-.91,1.51-3.41,12.87-5.54,25.25L974,218l2.18,22.45L978.32,263l8.36,3.6c10.73,4.63,9.39,4.74,17.93-1.45Zm86.72-1.27,4.8-4.8V220.34l-1.59-5.56-1.6-5.56,2.51-3.43c2.84-3.88,3.29-9.31.9-10.79l-1.6-1-9.19,8.34-9.19,8.33.63,19,.64,19-1.72,5.87-1.72,5.87,4.69,4.1c5.92,5.17,6.6,5.14,12.44-.7Zm-392-2.41,6.53-5.38,1.26-17.1,1.25-17.1-2.57-7.47-2.57-7.47,2.58-1,2.59-1-.56-8.24-.55-8.25-1.83,0-1.82,0-.58,3.72c-.32,2-1.34,3.71-2.27,3.71s-5,3-9.16,6.75l-7.47,6.75,1,6,1,6h-2.52l.08,19.85.09,19.85,2.42,2.92c3.41,4.11,5.69,3.68,13.15-2.47Zm144.34,3,3.21-2.34,1.63-12.68a289.75,289.75,0,0,0,1.7-29.17l.06-16.48-4.18-.77-.19-3.6,2.18-2.19,2.19-2.18V176.88l-4.08-4.33-4.07-4.34,4.48-3.38,4.48-3.38L847.91,158c-3.57-3.94-4.11-7.73-1.11-7.73h2l-1.21-6.83c-.66-3.76-1.62-8.24-2.13-10l-.92-3.14L841,132.53l-3.56,2.22.88,2.28.88,2.28h-6.84l-8.14,9.06-8.15,9-1,5.06-1,5.06,2.4,1.36,2.41,1.37-1,3.64-1,3.65h4.36l-3.79,6.13-3.79,6.14v45.35l2.91,9.8,2.91,9.8,6,6,6,6h4.39a15,15,0,0,0,7.59-2.35ZM658.36,249.05c-.12-7.76.49-18,1.35-22.64l1.56-8.53-3.76-4.78-3.75-4.77-2.18,4.06-2.18,4.07,1.27,20,1.27,20.06,1.77,3.3c1,1.81,2.46,3.3,3.31,3.3h1.55Zm137.23-11.6V217.9L791,214.31c-2.5-2-4.55-4.49-4.55-5.59v-2H792l1.87-4.9,1.86-4.91-.54-5.3,0-4.22,2.94-7-3.45,5.92-4.29,5.84L786.1,198l-1.84,13.7-1.83,13.71,1.83,13.88c1,7.63,2.81,16.34,4,19.34l2.15,5.47,2.6-3.54,2.59-3.53Zm248.67-19.65-2.77-2.77v6.62a35.58,35.58,0,0,0,1.28,9.95l1.28,3.33,1.5-7.17,1.49-7.18Zm94.59-51.46,4.64-2.12v-22L1142,144c-1.35,1.55-9.41,21.88-9.41,23.75C1132.56,168.89,1133.88,168.6,1138.85,166.34Zm-415.4-5.45,2.74-3.91-2.68-5.19c-3.3-6.38-4-6.44-6.29-.51L715.45,156l1.11,4.43C717.93,165.84,719.88,166,723.45,160.89Zm392.72-4.5a18,18,0,0,0-2.1-6.66l-2.09-3.91-1.54,4.17-1.54,4.16,1.9,3.56,1.91,3.56,1.73-1.07A4.89,4.89,0,0,0,1116.17,156.39Zm-200.36-7.54v-1.39l8.65.2a89.61,89.61,0,0,1,14.12,1.44l5.46,1.23-.63-10.52-.64-10.52L940.91,127c-1-1.24-4.93-3.19-8.7-4.32l-6.84-2-6.55,7-6.55,7.06,0,7.74-.05,7.74H914a1.66,1.66,0,0,0,1.82-1.39Zm-86.45-14.3,4.49-3,0-3,0-3,1.49,2.34,1.48,2.34,3-1.17,3-1.17V117.45h-5.07l-1.14-4.55-1.14-4.55h-5.82l1-3.65.95-3.64-1.34-.83L829,99.4l-.12,2.19c-.25,4.51-4.25,29.64-5.2,32.71-1.24,3.95,0,4,5.69.25ZM1046,135.67a4.55,4.55,0,0,0-7.28,0l-1.13,1.82h9.54Zm-784.1,33.1-1.12,1.8-1.11,1.79,4,4.29,4,4.29,2.32-.89,2.32-.89,1.94,5.57c1.07,3.07,2.64,5.58,3.5,5.58s4.58-3.11,8.29-6.91c6.45-6.61,8.58-11.31,5.11-11.31-.89,0-2.1-1.25-2.69-2.78l-1.07-2.78,6.34-3,6.34-3v-2.43c0-1.34-2.05-5.68-4.56-9.64s-4.55-8.21-4.55-9.43v-2.22l6.37,6.18,6.38,6.18v-2c0-1.09-2.17-9.24-4.83-18.12l-4.83-16.14-.82-23.68-.82-23.68,1.67-6.37,1.66-6.38h5.1l1.33,6.38C303,62.67,305.8,77,308.5,91s6.09,29.53,7.55,34.46l2.65,8.95,1.61-2.58,1.6-2.58,3.68,2.28c4.65,2.88,5.54,2.86,5.54-.17V129l4.48-2,4.48-2,3.71-7.28,3.72-7.28L345,99.43c-2.68-11.47-2.06-15,1.72-9.78l2.27,3.1,1.24-12.69c.69-7,1.65-14.13,2.14-15.89l.88-3.18h7l1.2,4.77,1.2,4.78L365,64.85l2.39-5.68h7.24l-1.07,22.76-1.08,22.77h1.11c.62,0,4.95-4.1,9.64-9.11,8-8.59,11.66-11,11.66-7.64,0,.8-4.49,8.62-10,17.36l-10,15.9,2.64,13.15c1.46,7.23,4.45,19.09,6.66,26.35l4,13.21,1.95-.08c1.08,0,6-5.5,10.87-12.13L410,149.66l-1.83-2.92-1.83-2.93.87-5.91.87-5.91-2.37-2.85-2.37-2.86,2-1.24,2-1.25.46-10.91c.25-6,.31-15.2.14-20.43l-.31-9.52L393.06,72.72c-8-5.62-14.57-11-14.57-11.88V59.17h3.66c2,0,7.37,1.74,11.9,3.87l8.23,3.87,2.83,3.87,2.82,3.87-1.32-20c-.72-11-1.41-22.49-1.51-25.5l-.2-5.46h5.46l3.1,12.75c1.71,7,5.35,24,8.1,37.74s5.27,24.72,5.61,24.38S429,89.39,430.46,79,434,57,435,53.25l1.89-6.83h5.32v36L445,84.67l2.73,2.26.08-2.5.09-2.5,2.5,5.47,2.5,5.46.12-3.64c.06-2-1.09-11.43-2.56-21S447.75,47.83,447.74,44l0-7,2.17.72,2.16.72,2.19,7.17,8,26.09L468,90.62l3.49-5.75,3.5-5.75-4.82-7.28c-2.65-4-4.44-7.66-4-8.12s2.83,2.41,5.27,6.36,4.88,7.22,5.42,7.25,2.46-2.46,4.27-5.54,3.71-5.19,4.2-4.7-1.23,4.52-3.82,8.94l-4.71,8V92h2.61A29.14,29.14,0,0,0,487.13,90l5.06-1.92,4.16,1,4.17,1v3.7l-3.68-2-3.68-2-1.79,1.11-1.78,1.1,2,4,2,4-4.1-4-4.1-3.94-4.3,2-4.3,2v3A7.75,7.75,0,0,1,475,104l-1.83,1.84,1.75,9.91c1,5.46,2.64,15.25,3.73,21.76s4.09,19.4,6.65,28.64l4.66,16.8-2.81,8.26-2.82,8.26,1.58,10.46c.88,5.75,2.13,17,2.78,25l1.2,14.58,4.42,5.12,4.41,5.13,3.63-1.15,3.62-1.15,1.37-4.89,1.37-4.89-.45-20-.46-20-2.08-6.31L503.64,195l2.09-.7,2.08-.69,0-24c0-28.6,6.31-127.65,9.31-146.77l2.12-13.5,2.46,3.37c1.36,1.86,2.47,4.35,2.47,5.54s1.55,3.29,3.45,4.66l3.44,2.5L529.33,40l-1.75,14.57.73,28.68c.4,15.78,1.2,29.15,1.78,29.73s2.72,0,4.78-1.29l3.74-2.34,1.38,1.38,1.38,1.38-2.21,3.54c-3,4.84-2.83,5.4,1.89,5.45,2.25,0,7.52,1.59,11.7,3.49l7.6,3.45.59-54.34.6-54.35L562.91,18l1.36-1.36,1.26,1.26c.7.69,3.05,9.64,5.24,19.88l4,18.62,1.3-3.64c.71-2,2.05-5.28,3-7.28l1.7-3.65-.93,12.75c-.52,7-1.66,17.26-2.54,22.77l-1.6,10,1.91,24.16,1.91,24.15,6.26-1.17,6.26-1.18,1.6,2.52,1.59,2.52.1,9.11.09,9.1,4.41-5.39,4.4-5.39,1.2,1.2,1.2,1.2-3.85,8c-2.12,4.38-3.85,9.36-3.85,11.08v3.13l-2.68,1-2.68,1-1.09,6.65c-.6,3.66-2.26,12.15-3.69,18.85a122.35,122.35,0,0,0-2.61,20.52c0,7.08,5,43.65,6,43.75,2.23.23,14.81,7.78,15.24,9.16l.59,1.83-3.6,2.25-3.59,2.24-1.94-3.62-1.94-3.63h-5.34v1.82c0,2.77-3.54,2.18-6.85-1.13l-3-2.95-11,.94c-6.07.52-12.46,1.53-14.22,2.24l-3.19,1.29v-2.35c0-1.3,1.77-4.24,3.93-6.53l3.93-4.18,1.43-8.69c.78-4.78,1.46-16.89,1.51-26.9l.08-18.22-2,2.73-2,2.74,1.53-3.65,1.54-3.64V182.72c0-11.69-.5-21.76-1.12-22.37s-5.34-1.62-10.5-2.23L542.36,157l-4.07,3.4-2.56,3.2.77-2.4c.57-1.81,2.27-3.25,2.27-4.05V155.7h-9.1v2.6c0,5.81,3.91,31.45,5.55,36.41L537,200l-2.63,2.91-2.64,2.91,1.73,24.3,1.72,24.29,3.8,5.35,3.81,5.34-1,2.66-1,2.67-6.89.05a76,76,0,0,0-14.17,1.76L512.36,274l-2-2.67c-2.45-3.24-6.25-3.4-12.55-.52l-4.73,2.15-6-2.17-6-2.17-37.68-.16-37.68-.17-2.44,2-2.44,2-11.32-2.9-11.32-2.9L375,269.4c-4,3.63-6.75,3.66-8.13.06l-1.08-2.81-3.55,1.9a15.74,15.74,0,0,1-5.49,1.9h-1.94v-2.92c0-1.61,2-5.32,4.48-8.26l4.49-5.32,2-6.78,2-6.77,1.1-22.81,1.09-22.81-4.72-16.35-4.72-16.35-.9-15.48c-.5-8.52-1-15.9-1.09-16.4-.17-.82-10.81,29.16-10.9,30.71,0,.36,2.12.11,4.75-.55l4.79-1.2L356,163.35a34.94,34.94,0,0,0-1.15,6.24l0,2-7,1.12-7,1.11-3,17c-5.23,29.25-3.51,47.62,6.32,67.58,2.91,5.91,4.81,11.22,4.23,11.8s-11.95,1.08-25.26,1.1l-24.19,0-3.05,2.53-3.05,2.53-3.48-3.15-3.47-3.15-3.62,1.15-3.62,1.15-1.15-1.85-1.14-1.85-7.73,1.06-7.74,1.06-2.27-2.74-2.28-2.75L247,267.82l-9.35,2.47-1.92-1.19c-1.06-.66-6.32-1.79-11.7-2.52s-10.32-1.86-11-2.52l-1.2-1.19,4.87-3.54c2.67-1.95,6.61-5,8.74-6.69l3.87-3.13,1.09-29.27L231.49,191l-4.9-8.36-4.91-8.37,1.85-1.14,1.85-1.15,4.61,3,4.6,3v-9.84l-5.46-2.07L223.67,164v-5.09l4.75.91,4.75.91L232,153.28a54.54,54.54,0,0,0-1.57-7.79c-.45-.41-13.86-2.34-17.67-2.55l-2.73-.15,5.35-2.29,5.36-2.28L214,134.06l-6.73-4.15v-5.27l5.92,3a111.93,111.93,0,0,1,11.15,6.7l5.22,3.67-1.31-15.3c-.72-8.42-2-16-2.75-16.84l-1.44-1.54-3.8,2-3.8,2,1.17-3.05,1.17-3-5,1.25-5,1.26,1-1.67,1-1.67-8.16-2.28-8.17-2.29V93.77h7.29v-4.2l3.33,3c1.83,1.66,4.5,3,5.92,3l2.59,0L211.22,94l-2.43-1.54,3.79-1,3.8-1V95.2l2.88,1.11a16.72,16.72,0,0,0,4.56,1.11h1.67l.21-27.78c.12-15.28.79-30.24,1.48-33.24l1.26-5.47,2.31,15.61c1.27,8.58,2.94,16.63,3.72,17.89l1.41,2.29,1.23-8.79c.67-4.83,1.73-18.77,2.36-31l1.14-22.19,1.47-2.38L243.55,0l1.9,1.9,1.9,1.9,1.76,13.57,1.77,13.56.05,35.82.06,35.81,3.19-.61a51.19,51.19,0,0,1,6.37-.75l3.19-.14,0-3.19,0-3.19,3.57-.44-.19,5.79,7.39-.54L282,99v5.74l-3.19.13-3.18.13,7.26,2-1.08,2.47-8.13-1.81-9-.06-6.83,3-6.83,3v16.81l14.6-.38c.28,0,2.92-6.43,3.91-6.31l2.65.31c.05,0-3.62,5.94-3.57,5.94,6.71-.09,12.11.16,12.56.62s-3,1.93-7.77,3.14l-8.72,2.2,4.55,2.53,4.56,2.52-2.4.07a14.58,14.58,0,0,1-5.77-1.75l-3.38-1.8-5.81,1.16-5.81,1.16.79,10.91.79,11.39-1.86,38.34,2.77-.23,1.7-4.41,3.79-.16-.09,4.17-4.76,5.94-.56,20-.57,20,2,6.95,2,6.95,2.17-.75,2.17-.74-.49-6.21h0c-.51-6.57-.46-22.08.13-37.16l.36-9.11-1.31-10.36-1-2.15-5.34-.93.65-28.19Zm196.48,91,3.68-5.17L464,243a185.09,185.09,0,0,0,1.91-24.65l0-13-2.77-7.84-2.77-7.85,1.86-1.86,1.86-1.85V170.15l-3-4.54-3-4.54,3-3.28c3.8-4.2,3.76-7.31-.14-11.62l-3.12-3.44,2.41-1.48,2.4-1.49-1.32-8c-.72-4.38-1.71-8.63-2.2-9.45l-.88-1.48-3.34,3-3.34,3,1,2.58,1,2.59-3-1.16-3-1.16-9.2,9.29-9.19,9.3.62,9.6.63,9.6,1.8,1.29,1.81,1.29-3.63,6-3.62,6v51l5.2,10.61,5.21,10.6,7.36,5.34c4.05,2.93,8,5.33,8.79,5.33s3.08-2.33,5.1-5.17Zm-152.09-3.94,6.59-7.3v-40.3l-2-3.67-2-3.68,3-3.3,3-3.31-1.23-6.56-1.23-6.56h-3.24v7.24L303.2,191l-6.06,2.54-4,5.11-4,5.11,1.15,5.26,1.16,5.25-2.9,2.15-2.9,2.15,2,7.29,2,7.28-.94,11.78-1,11.78,3.75,3.25c5.39,4.68,7.44,4.12,14.81-4Zm100.5-6.65,1.29-10.29L407,225.21l-1.16-13.73-3.64-3.87c-4.67-5-4.58-6,.92-11.09l4.55-4.22V173.2L402,182.08,396.37,191l-1,16.52-1,16.53,2.05,13.13c2.1,13.41,5.17,22.38,7.67,22.38h1.4Zm155.62-95.09v-3.38l-10.58-1.11-10.58-1.1-5.36,1.53-5.35,1.53,2.73,1c1.5.54,5.11,1.51,8,2.16l5.29,1.16,1.54-2.38,1.83.55,1.74.78c2.39,1,4.77,2.29,8.45,2.52l2.27.14ZM331.06,141c-3-7.24-4.85-6.64-6.31,2.06l-1.25,7.34,2.33,2.81,2.33,2.8,2.54-4.86,2.55-4.86Zm230.68-.89a20.48,20.48,0,0,1-1.11-6.15v-3.27l-9-3.85-9-3.85-5.61,1.12-5.62,1.12v16l9.78-1.15,9.78-1.15,3.42,2a15.54,15.54,0,0,0,5.9,2.05l2.47,0-1.1-2.88ZM445.87,120.18l0-1.82,5.51-.19c6.88-.25,7.12-.52,6-6.64l-1-5h-5v-2.63c0-1.44-1.49-3.7-3.31-5a16.61,16.61,0,0,1-4.81-6l-1.5-3.64-3.3,15.48c-1.82,8.52-3.35,17.29-3.39,19.5l-.09,4,5.46-3.1c3-1.71,5.46-3.92,5.46-4.93Zm-248,149.4-4.16-4.78-2.16,3-2.16,2.95-6-3.1-6-3.09-13.3,1.12-13.29,1.12v-2.71c0-1.49.69-2.7,1.53-2.7,1.69,0,5.28-7.07,7.86-15.49.93-3,2.46-17.35,3.42-31.87l1.74-26.41-1.94-19.13c-1.07-10.52-2.52-26.33-3.22-35.15l-1.27-16-2.68-1.65c-1.47-.91-6.67-2.62-11.55-3.79l-8.87-2.13-1.62,2.51-.57,2.82-1-.31L131,112.21l-1.62-2.51-4.77-.2L116.88,108l.47-2.53,4.79.17,5,1.25L126,103.54l-1.18-3.39,2.49,0,2.55,6.28,9.61,1.81c5.29,1,11.3,2.7,13.37,3.81l3.75,2,1.21-1.2,1.21-1.21.91-53.13.91-53.13,1.49-2.3L163.81.82l1.57,1c1.52.94,4,11.54,6.43,27.78L173,37.31h1.46c.81,0,2-2.05,2.61-4.55l1.14-4.56h3.89l-1,6.83c-.54,3.76-2,14.21-3.15,23.23l-2.17,16.39,1.13,24.76L178,124.17l1.57,4.25,1.57,4.25,1-4,1-4,3.15-1.21,3.15-1.21,2.94,1.85a6.86,6.86,0,0,1,3.11,4.38c.11,1.4.36,6.23.58,10.74l.38,8.2,2.17-3.35c1.19-1.84,3.13-4.71,4.3-6.37l2.12-3,1.22,1.21,1.21,1.22-3.8,8.57c-2.08,4.72-3.79,9.38-3.79,10.34s-1.64,3.84-3.64,6.39l-3.65,4.63v4.11c0,2.25-2.07,11.25-4.6,20l-4.6,15.88,1.88,18.47c1,10.17,2.36,21,2.94,24.15l1.05,5.68,7.13,4c3.92,2.2,7.93,5.51,8.91,7.34l1.79,3.34-2.59,2.15L202,274.37Zm-49.78-123c-2.31-.47-5.63-1.06-8.92-1.6-.17,0-7.15,5.74-7.15,5.74.36-.36-2-.36-1-1.74.5-.74,5.65-4.4,5.39-4.44-1.44-.22-2.82-.43-4-.58-2.87-.36-7.6,0-8.46-1.12l-.93-3.56-.93-3.56h1.56c.86,0,2.31,1.33,3.22,3,1.74,4.61,6.22,3.23,10.56,3.48a69.86,69.86,0,0,1,9,1c.19,0-2.6-2.86-2.41-2.82s-.2-1.34.88-.53,3.73,3.83,4,3.92c2.54.66,15.7-.6,14.68,2.78l-.52,1.74-4.91-.07a81.67,81.67,0,0,1-10-1.57Z"/></g><path id="rect832" d="M116.88,268.93c15.26-3.36,16.43-6.12,23.77-6,221.52,4,433.89,3.15,729.83,5.69,18.91.81,35.34-1,53.21-.37,89.58,3.22,166.54,6.55,274.86,3.16,1.85-.06,7.9-2.07,10.55-2.32v16H116.88Z"/><path d="M112.29,276.71l-4.16-4.78-2.16,3-2.16,2.95-6-3.1-6-3.09-13.3,1.12-13.29,1.12v-2.7c0-1.49.69-2.71,1.53-2.71,1.69,0,5.28-7.07,7.86-15.49.92-3,2.46-17.34,3.42-31.87l1.74-26.41-2-19.13c-1.06-10.51-2.51-26.33-3.21-35.15l-1.27-16-2.68-1.65c-1.47-.91-6.67-2.61-11.55-3.79l-8.87-2.12-1.62,2.5-.57,2.82-1-.31-1.61-2.51-1.62-2.51-4.77-.2-7.71-1.46.47-2.53,4.79.17,5,1.25-1.17-3.39-1.18-3.39,2.49,0,2.55,6.29,9.61,1.8c5.29,1,11.3,2.71,13.37,3.81l3.75,2L72.23,120l1.21-1.21.91-53.13.91-53.12,1.49-2.31L78.24,8l1.57,1c1.52.93,4,11.53,6.43,27.77l1.18,7.74h1.46c.81,0,2-2,2.61-4.55l1.14-4.56h3.89l-1,6.83c-.54,3.76-2,14.21-3.15,23.23L90.22,81.78l1.13,24.76,1.12,24.76L94,135.55l1.57,4.25,1-4,1-4,3.15-1.21,3.15-1.21,2.94,1.85a6.86,6.86,0,0,1,3.11,4.39c.11,1.39.36,6.22.57,10.73l.39,8.2,2.17-3.35c1.19-1.84,3.13-4.71,4.3-6.37l2.12-3,1.22,1.22,1.21,1.21-3.8,8.58c-2.08,4.71-3.79,9.37-3.79,10.33s-1.64,3.85-3.65,6.39l-3.64,4.63v4.11c0,2.26-2.07,11.25-4.6,20l-4.6,15.88,1.88,18.48c1,10.16,2.36,21,2.94,24.15l1,5.67,7.13,4c3.92,2.21,7.93,5.51,8.91,7.34l1.79,3.34L119,279.35l-2.59,2.15Z"/><path d="M65.87,92.58c-2.31-.47-5.63-1.06-8.92-1.6-.17,0-7.15,5.74-7.15,5.74.36-.36-2-.36-1-1.74.5-.74,5.65-4.4,5.39-4.44-1.44-.22-2.82-.43-4-.58-2.87-.36-7.6,0-8.46-1.12l-.93-3.56-.93-3.56h1.56c.86,0,2.31,1.33,3.22,3,1.74,4.61,6.21,3.23,10.56,3.48a69.86,69.86,0,0,1,9,1c.19,0-2.6-2.86-2.41-2.82s-.2-1.34.88-.53,3.73,3.83,4,3.92c2.54.66,15.7-.6,14.68,2.79l-.52,1.73-4.91-.07a81.67,81.67,0,0,1-10-1.57Z"/><path id="path860-2" data-name="path860" d="M1366,285.11l1.56-3.85-3.48-3.15-3.62,1.15-3.62,1.15-1.14-1.85-1.15-1.85-7.73,1.06-7.73,1.06-2.28-2.75-2.27-2.74-9.35,2.47-9.34,2.46-1.93-1.19c-1-.65-6.32-1.78-11.7-2.51s-10.31-1.87-11-2.52l-1.19-1.2,4.86-3.54c2.68-1.95,6.61-4.95,8.74-6.68l3.88-3.14,1.09-29.27,3-10.15-4.9-8.36-4.91-8.37,1.85-1.14,1.86-1.15,4.6,3,4.61,3v-9.84l-5.47-2.07-5.46-2.06V186l4.75.91,4.75.91-1.19-7.46a54.54,54.54,0,0,0-1.57-7.79c-.45-.41-13.86-2.34-17.67-2.55l-2.73-.15,5.35-2.29,5.36-2.28-6.72-4.16-6.73-4.16v-5.26l5.92,3a111.93,111.93,0,0,1,11.15,6.7l5.22,3.67-1.31-15.3c-.72-8.42-2-16-2.75-16.84l-1.44-1.54-3.8,2-3.8,2,1.17-3,1.17-3-5,1.25-5,1.26,1-1.67,1-1.67-8.16-2.28-8.17-2.29v-3.17h7.29v-4.2l3.33,3c1.83,1.66,4.5,3,5.92,3l2.59,0-2.43-1.54-2.43-1.54,3.79-1,3.8-1v4.73l2.88,1.11a16.72,16.72,0,0,0,4.56,1.11h1.67l.21-27.78c.12-15.28.79-30.24,1.48-33.24l1.26-5.47,2.31,15.61c1.27,8.58,2.94,16.63,3.72,17.89l1.42,2.29,1.22-8.79c.67-4.83,1.73-18.77,2.36-31l1.14-22.19,1.47-2.38,1.47-2.38,1.9,1.9,1.9,1.9,1.77,13.57L1331,58l0,35.82.06,35.81,3.19-.61a51.19,51.19,0,0,1,6.37-.75l3.19-.14,0-3.19,0-3.19,3.57-.44-.19,5.79,7.39-.54,7.39-.53v5.74l-3.19.13-3.18.13,7.26,2-1.08,2.47-8.13-1.81-9-.06-6.83,3-6.83,3v16.81l14.6-.38c.28,0,2.92-6.43,3.91-6.31l2.65.31s-3.62,5.94-3.57,5.94c6.71-.09,12.11.16,12.56.62s-3,1.93-7.77,3.14l-8.72,2.2,4.55,2.53,4.56,2.52-2.4.07a14.58,14.58,0,0,1-5.77-1.75l-3.38-1.8-5.81,1.16-5.81,1.16.79,10.91.79,11.39-1.86,38.34,2.77-.23,1.7-4.41,3.79-.16-.09,4.17-4.76,5.94-2.51.91-.56,20,2,6.94,2,6.95L1337,267l2.17-.75-.48-6.2h0c-.52-6.57-.46-22.09.13-37.17l2.3,10-1.31-10.36-1-2.15-5.34-.93.65-28.19,7.94,4.61-1.11,1.8-1.12,1.79,4,4.29,4,4.29,2.32-.89,2.32-.89,2,5.57c1.06,3.07,2.64,5.58,3.49,5.58M1276,277.57l-4.16-4.79-2.16,3-2.16,3-6-3.1-6-3.1-13.29,1.12L1229,274.75V272c0-1.49.68-2.71,1.52-2.71,1.7,0,5.29-7.07,7.87-15.48.92-3,2.46-17.35,3.42-31.88l3.68-7.28-1.94-19.13c-1.07-10.52-2.52-26.34-3.22-35.15l-1.27-16-2.68-1.65c-1.47-.91-8.61-21.74-13.49-22.91l-8.88-2.13-1.61,2.51-.57,2.82-1-.32-1.62-2.51-1.61-2.51-4.78-.2-7.7-1.46.46-2.53,4.8.18,5,1.24-1.18-3.39-1.17-3.39,2.48.06,2.56,6.28,9.61,1.8c5.29,1,13.24,21.83,15.31,22.94l3.75,2,1.21-1.21,1.21-1.2.91-53.13.91-53.13,1.49-2.3,1.49-2.31,1.58,1c1.51.94,4,11.54,6.42,27.78l1.18,7.74h1.46c.81,0,2-2.05,2.61-4.55l1.14-4.56h3.89l-1,6.83c-.54,3.76-2,14.21-3.15,23.23l-2.17,16.39,1.13,24.76,1.12,24.76,1.57,4.25,1.57,4.25,1-4,1-3.95,3.15-1.21,3.16-1.21,2.93,1.85a6.86,6.86,0,0,1,3.11,4.38c.11,1.4.36,6.23.58,10.74l.38,8.2,2.17-3.35c1.19-1.84,3.13-4.71,4.3-6.37l2.13-3,1.21,1.21,1.21,1.22-3.8,8.57c-2.08,4.72-3.79,9.37-3.79,10.34s-1.64,3.84-3.64,6.39l-3.65,4.63v4.11c0,2.25-2.07,11.25-4.6,20l-4.6,15.88-.06-.65c1,10.16,2.36,21,2.94,24.15l1,5.67,7.12,4c3.92,2.2,7.94,5.5,8.92,7.34l1.78,3.33-2.59,2.15-2.58,2.15Zm-49.79-123c-2.3-.48-5.62-1.07-8.91-1.6-.17,0-7.15,5.74-7.15,5.74.35-.37-2-.37-1-1.75.49-.74,5.64-4.4,5.38-4.44-1.44-.22-2.81-.42-4-.58-2.88-.35-7.6,0-8.46-1.12l-.94-3.56-.93-3.56h1.56c.86,0,2.31,1.34,3.23,3,1.73,4.61,6.21,3.23,10.56,3.49a69.48,69.48,0,0,1,9,1c.19,0-2.6-2.86-2.41-2.82s-.19-1.35.89-.53,3.72,3.83,4,3.91c2.55.66,17.65,18.53,16.63,21.91l-.52,1.74-4.91-.07c-1.51,0-8-19.87-12-20.69Z"/><path id="rect832-2" data-name="rect832" d="M1209.1,285.1V268.93c33.59-3.36,36.17-6.12,52.32-6"/><path id="rect832-3" data-name="rect832" d="M1365.69,270.57c1.85-.06-3.11,14.78-.45,14.53"/><rect x="1183.14" y="267.38" width="182.81" height="17.73"/><rect y="267.37" width="170.11" height="17.73"/><g id="layer1-2" data-name="layer1"><path id="path860-3" data-name="path860" d="M614.18,279.6m-1.7-126.07,6.43,2.4M116.17,276.8c-5.5,1.32-10.46,3.13-11,4l-1,1.61-4.53-3-4.53-3-2.66,1-2.66,1-3.57-2.23-3.57-2.23-3.39,2.12-3.4,2.12L73,275.4l-2.9-2.9-10,2.24L50,277l-3.61-1.93-3.61-1.93H24.36v-1.7c0-.93,1.7-2.24,3.77-2.89s6.57-3.67,10-6.69l6.26-5.49v-57.2l-4.61-6.26-4.62-6.25,2-.68a4.56,4.56,0,0,1,4.07,1.35,6.75,6.75,0,0,0,3.48,2h1.46V180l-5.46-1.91c-3-1-5.47-2.64-5.47-3.55v-1.64H44.4v-2.5a58.1,58.1,0,0,0-1.14-8.2l-1.14-5.69-10.24-.19-10.25-.19L28.56,154l6.93-2.15-7.76-4.36L20,143.14l2.12-.71c1.16-.38,5.86,1,10.44,3l8.32,3.68-1.1-12.21c-.61-6.71-1.47-13.37-1.92-14.79L37,119.51l-2.13,2.13c-1.17,1.16-2.76,2.12-3.53,2.12h-1.4L31,121,32,118.3H29.48c-1.41,0-3.09,2.35-4.76,2.94l-1.64.57.38-2,1.14-3-9.13-2.34-9.14-2.34,1-1.57,1-1.58,3.76,1.2,3.77,1.19-1.27-3.29-1.26-3.3c2.57-.77,2.64,1.87,3.61,3.27l3.62,3.27,5.33-2.66,2.63.37c1,1,.88.38,1.16,1.35l-.23,2.39,2,.28c1.12.15,3,.35,4.11.45l2.08.18.31-31.38c.18-17.26.77-31.7,1.16-32.23,3.82-5.16,2,5.62,4.19,17.58l3.35,18.42,1.45-2.59,1.45-2.6,1.24-30,1.24-30,2-1.25a3.63,3.63,0,0,1,3.3-.46c1.53.94,3.13,26.74,4.29,69.09.47,17,.88,31.06.92,31.17a27.92,27.92,0,0,0,4.77-.7l4.7-.89L73.58,114l1.55-3.86.12,3.33.11,3.32,5.92-.32a71,71,0,0,1,7.74-.11l1.83.21-2.74,1.79-2.73,1.8,2.1,1.36,2.11,1.37-8.48.13-8.48.14-5,2.1-5,2.09v17.4l13.83-.92,13.83-.92.77,1.24.76,1.24-9.58,2.75c-5.27,1.51-11.84,3.3-14.6,4l-5,1.22,0,4.81a54.16,54.16,0,0,0,1.9,11.62l1.89,6.81L70,178.45l3.56,1.9v3.22a8.5,8.5,0,0,0,2,5.26l2,2L80,190M623.61,280.4h-9.13M98.28,263.63l2.43,2.92c3.41,4.12,5.68,3.69,13.14-2.46h0M72.91,251.72c-.12-7.77.49-18,1.35-22.65l1.56-8.52-3.75-4.78L68.31,211l-2.18,4.07L64,219.13l1.27,20.05,1.27,20.05,1.76,3.3c1,1.82,2.47,3.3,3.32,3.3h1.55Z"/></g></svg>