<svg id="Capa_1" data-name="Capa 1" xmlns="http://www.w3.org/2000/svg" xmlns:xlink="http://www.w3.org/1999/xlink" viewBox="0 0 581.41 540.15"><defs><style>.cls-1{opacity:0.6;}.cls-2{fill:#f77d2b;}.cls-3{fill:#99f1ff;}.cls-4{fill:#fbff5f;}.cls-5{font-size:18px;font-family:Roboto-Regular, Roboto;}.cls-6{letter-spacing:-0.02em;}.cls-7{letter-spacing:-0.01em;}.cls-8{letter-spacing:-0.01em;}.cls-9{font-size:14px;font-family:Roboto-Black, Roboto;font-weight:800;}</style></defs><g id="nodes"><g id="Asia" class="cls-1"><path id="p_725.2760638397282" data-name="p 725.2760638397282" class="cls-2" d="M303,571.45a173.53,173.53,0,0,1,0-347.05h0a173.53,173.53,0,0,1,0,347.05Z" transform="translate(-129.46 -31.29)"/></g><g id="Africa" class="cls-1"><path id="p_899.5135595756113" data-name="p 899.5135595756113" class="cls-3" d="M537.34,571.45a173.53,173.53,0,0,1,0-347.05h0a173.53,173.53,0,0,1,0,347.05Z" transform="translate(-129.46 -31.29)"/></g><g id="South_America" data-name="South America" class="cls-1"><path id="p_487.9210370678403" data-name="p 487.9210370678403" class="cls-4" d="M420.32,378.34A173.53,173.53,0,1,1,593.84,204.82,173.53,173.53,0,0,1,420.32,378.34Z" transform="translate(-129.46 -31.29)"/></g></g><text class="cls-5" transform="translate(223.84 71.96)">30 o más g<tspan class="cls-6" x="88.8" y="0">r</tspan><tspan x="94.54" y="0">ados </tspan><tspan x="6.52" y="21.6">Centíg</tspan><tspan class="cls-6" x="58.13" y="21.6">r</tspan><tspan x="63.87" y="21.6">ados de</tspan><tspan x="15.94" y="43.2" xml:space="preserve"> tempe</tspan><tspan class="cls-6" x="71.22" y="43.2">r</tspan><tspan x="76.96" y="43.2">atu</tspan><tspan class="cls-6" x="102.56" y="43.2">r</tspan><tspan x="108.29" y="43.2">a</tspan></text><text class="cls-5" transform="translate(68.43 412.53)">Menos de un 30% <tspan x="6.57" y="21.6">de humedad del </tspan><tspan x="33.06" y="43.2">ambiente</tspan></text><text class="cls-5" transform="translate(378.91 419.18)">Más de 30 nudos <tspan x="4.15" y="21.6">de </tspan><tspan class="cls-7" x="28.29" y="21.6">v</tspan><tspan x="36.9" y="21.6">elocidad del </tspan><tspan x="44.54" y="43.2">vien</tspan><tspan class="cls-8" x="77.1" y="43.2">t</tspan><tspan x="82.8" y="43.2">o</tspan></text><path d="M413.1,177.84a7.1,7.1,0,0,1,14.2,0v21.44a9.94,9.94,0,1,1-14.2,0Zm7.1-4.26a4.26,4.26,0,0,0-4.26,4.26v22.68l-.47.43a7.1,7.1,0,1,0,10,.56,4.94,4.94,0,0,0-.56-.56l-.47-.43V177.84A4.26,4.26,0,0,0,420.2,173.58Zm14.2,2.84a1.41,1.41,0,0,1,1.42,1.42v2.84a1.42,1.42,0,0,1-2.84,0v-2.84A1.42,1.42,0,0,1,434.4,176.42Zm12.05,5a1.4,1.4,0,0,1,0,2l-2,2a1.43,1.43,0,1,1-2-2l2-2A1.4,1.4,0,0,1,446.45,181.41Zm-13.47,5a1.42,1.42,0,0,1,1.42-1.42,8.52,8.52,0,1,1,0,17,1.42,1.42,0,1,1,0-2.84,5.68,5.68,0,1,0,0-11.36A1.43,1.43,0,0,1,433,186.36Zm12.78,7.1a1.42,1.42,0,0,1,1.42-1.42H450a1.42,1.42,0,0,1,0,2.84h-2.84A1.43,1.43,0,0,1,445.76,193.46Zm-3.33,8a1.42,1.42,0,0,1,2,0h0l2,2a1.42,1.42,0,0,1-2,2l-2-2a1.43,1.43,0,0,1,0-2Zm-8,3.33a1.42,1.42,0,0,1,1.42,1.42v2.84a1.42,1.42,0,0,1-2.84,0v-2.84A1.43,1.43,0,0,1,434.4,204.82Z" transform="translate(-129.46 -31.29)"/><path d="M424.58,207a4.38,4.38,0,1,1-5.84-4.13v-25a1.46,1.46,0,0,1,2.92,0v25A4.39,4.39,0,0,1,424.58,207Z" transform="translate(-129.46 -31.29)"/><path d="M259.2,402.62a1.5,1.5,0,0,1,.94,1.88h0L258.65,409a1.49,1.49,0,0,1-2.82-.94l1.49-4.45A1.5,1.5,0,0,1,259.2,402.62Zm17.83,0a1.51,1.51,0,0,1,.94,1.88h0L276.48,409a1.49,1.49,0,0,1-2.82-.94l1.49-4.45A1.5,1.5,0,0,1,277,402.62Zm-10.4,4.46a1.49,1.49,0,0,1,.93,1.88h0l-1.48,4.46a1.49,1.49,0,0,1-2.82-.94l1.49-4.46A1.48,1.48,0,0,1,266.63,407.08Zm17.82,0a1.48,1.48,0,0,1,.94,1.88h0l-1.48,4.46a1.48,1.48,0,0,1-2.85-.83l0-.11,1.49-4.46A1.48,1.48,0,0,1,284.45,407.08Zm2.22-25.25a14.85,14.85,0,0,0-28.22-3,10.4,10.4,0,1,0-2.38,20.66,11.48,11.48,0,0,0,1.17.07h28.23a8.91,8.91,0,0,0,1.2-17.75Z" transform="translate(-129.46 -31.29)"/><path d="M589.26,376.07a6.71,6.71,0,0,0-6.72,6.71,1.34,1.34,0,0,1-2.68,0,9.4,9.4,0,1,1,9.4,9.39H557.05a1.34,1.34,0,1,1,0-2.68h32.21a6.71,6.71,0,1,0,0-13.42Zm-18.79,2.68a2.68,2.68,0,0,0-2.69,2.69,1.34,1.34,0,1,1-2.68,0,5.37,5.37,0,1,1,5.37,5.37H557.05a1.35,1.35,0,1,1,0-2.69h13.42a2.69,2.69,0,0,0,0-5.37ZM555.7,396.2a1.35,1.35,0,0,1,1.35-1.34h27a8,8,0,1,1-8,8.05,1.34,1.34,0,1,1,2.68,0,5.37,5.37,0,1,0,5.37-5.37h-27A1.35,1.35,0,0,1,555.7,396.2Z" transform="translate(-129.46 -31.29)"/><image width="512" height="512" transform="translate(267.23 274.57) scale(0.09)" xlink:href="../../../Downloads/fire_icon-icons.com_70969.png"/><text class="cls-9" transform="translate(287.01 403.88)">30</text><text class="cls-9" transform="translate(205.44 267.55)">30</text><text class="cls-9" transform="translate(360.01 267.75)">30</text></svg>